<svg width="150" height="150" viewBox="0 0 150 150" fill="none" xmlns="http://www.w3.org/2000/svg">
<path d="M123.08 138.92C122.779 139.412 122.381 139.836 121.909 140.164C120.132 142.389 117.655 144 114.566 145H131.574C140.094 145 147 138.036 147 129.444V20.5556C147 11.9645 140.094 5 131.574 5H117.656C120.573 5.72453 123.46 6.93263 126.29 8.7029C126.299 8.70891 126.303 8.72441 126.303 8.72441C126.307 8.72741 126.314 8.72795 126.32 8.72849C126.326 8.72902 126.332 8.72956 126.337 8.73256C155.167 26.7685 134.796 76.0708 126.262 93.7031C132.846 108.471 131.68 124.94 123.08 138.92Z" fill="#F0DB4F"/>
<path d="M103.14 5C80.9025 9.94129 59.518 35.1279 50.7699 46.5942C36.1442 47.1705 21.5899 54.1307 12.1703 69.3371C12.1496 69.3628 12.1285 69.3864 12.1081 69.4092C12.0725 69.4489 12.0389 69.4865 12.0129 69.5289C5.88913 79.4832 13.9438 95.579 33.5563 112.58C39.5858 117.841 46.3354 122.697 53.3466 127.083C60.4435 131.523 68.0618 135.603 75.5073 138.732C82.5574 141.708 89.0801 143.797 94.9229 145H17.4255C8.90621 145 2 138.036 2 129.444V20.5556C2 11.9645 8.90625 5 17.4255 5H103.14Z" fill="#323330"/>
<path d="M122.872 138.7C122.572 139.192 122.174 139.615 121.704 139.944C114.899 148.471 97.817 147.993 75.3864 138.512C67.9543 135.385 60.3499 131.307 53.2659 126.869C46.2674 122.485 39.53 117.632 33.5115 112.374C13.9347 95.3818 5.8946 79.2945 12.0072 69.3454C12.0482 69.2787 12.1076 69.2241 12.1644 69.1537C21.5668 53.9553 36.0948 46.9986 50.6938 46.4227C62.4812 30.9527 97.2522 -9.50456 126.076 8.55121C126.086 8.55721 126.089 8.57271 126.089 8.57271C126.099 8.57871 126.114 8.57486 126.124 8.58086C154.901 26.6074 134.567 75.8839 126.049 93.5069C132.621 108.267 131.457 124.728 122.872 138.7Z" fill="#323330"/>
<path d="M29.9518 62.0923C44.432 62.4959 64.2482 70.3513 81.3918 81.0902C98.7245 91.9476 114.648 106.585 121.318 119.615C122.615 112.09 121.685 104.368 118.384 96.9782C118.304 96.77 118.303 96.5587 118.253 96.3429C117.123 95.0818 116.804 93.2223 117.608 91.6179C132.009 62.7429 140.647 27.6629 121.694 15.7908C121.684 15.7848 121.681 15.7693 121.671 15.7633C121.671 15.7633 121.656 15.7672 121.647 15.7611C104.201 4.83305 79.694 23.8078 60.9147 47.0692C67.6443 48.1763 74.1384 50.5582 79.8469 54.134C81.8156 55.3672 82.4204 57.9716 81.199 59.9596C79.9777 61.9474 77.3921 62.5675 75.4232 61.3342C62.1039 52.9909 43.7364 52.1417 29.9518 62.0923Z" fill="white"/>
<path d="M72.4102 116.008C75.4898 110.995 73.9556 104.383 68.9823 101.268C64.0181 98.1583 57.4699 99.7074 54.3902 104.72C51.3048 109.742 52.8391 116.354 57.8033 119.463C62.7768 122.579 69.3249 121.029 72.4102 116.008Z" fill="white"/>
<path d="M115.512 134.182C119.538 127.628 106.829 106.995 76.9682 88.2903C47.2772 69.6916 23.4452 67.2894 19.2268 73.7098L19.1978 73.757C19.1801 73.7857 19.1496 73.793 19.1319 73.8217C16.1731 78.6592 22.0378 91.2378 38.9845 105.95C40.6503 107.401 42.4689 108.857 44.3375 110.317C44.3389 106.854 45.2157 103.346 47.1557 100.188C52.713 91.1427 64.5122 88.3514 73.4702 93.9628C82.4283 99.5742 85.2018 111.494 79.6445 120.539C77.7045 123.697 74.9722 126.043 71.8995 127.582C74.1065 128.661 76.2777 129.692 78.368 130.58C98.7035 139.182 112.578 138.957 115.512 134.182Z" fill="white"/>
<path d="M112.613 27.5554C107.056 24.0742 93.8462 31.2639 88.7309 38.9526C87.4435 40.8991 84.8333 41.4114 82.9054 40.1114C80.9833 38.8023 80.4704 36.1757 81.7578 34.2292C88.5628 24.0023 106.365 13.67 117.037 20.3552C119.006 21.5884 119.62 24.1994 118.398 26.1872C117.177 28.1751 114.582 28.7886 112.613 27.5554Z" fill="#323330"/>
</svg>
