<svg width="795" height="100" viewBox="0 0 795 100" fill="none" xmlns="http://www.w3.org/2000/svg">
<path d="M101.493 91.0912C101.298 91.4076 101.04 91.68 100.734 91.8914C99.5821 93.3213 97.9764 94.3575 95.9737 95H780C785.523 95 790 90.5229 790 85V15C790 9.47715 785.523 5 780 5H97.9771C99.868 5.46577 101.74 6.2424 103.574 7.38044C103.58 7.3843 103.582 7.39426 103.582 7.39426C103.586 7.39619 103.59 7.39654 103.594 7.39688C103.598 7.39723 103.602 7.39757 103.605 7.39951C122.295 18.994 109.088 50.6884 103.556 62.0234C107.824 71.5173 107.068 82.1044 101.493 91.0912Z" fill="#F0DB4F"/>
<path d="M88.5667 5C74.1506 8.17654 60.2875 24.3679 54.6163 31.7391C45.1349 32.1096 35.6996 36.584 29.5932 46.3596C29.5797 46.3761 29.5661 46.3913 29.5528 46.4059C29.5298 46.4315 29.508 46.4556 29.4911 46.4829C25.5212 52.8821 30.7429 63.2294 43.4572 74.1585C47.3659 77.5407 51.7415 80.6621 56.2868 83.4818C60.8875 86.3359 65.8263 88.9591 70.653 90.9705C75.2234 92.8836 79.4519 94.2268 83.2397 95H15C9.47713 95 5 90.5229 5 85V15C5 9.47715 9.47715 5 15 5H88.5667Z" fill="#323330"/>
<path d="M101.493 91.0912C101.298 91.4076 101.04 91.68 100.734 91.8914C96.3149 97.3763 85.2207 97.0682 70.653 90.9705C65.8263 88.9591 60.8875 86.3359 56.2868 83.4818C51.7415 80.6621 47.3659 77.5407 43.4572 74.1585C30.7429 63.2294 25.5212 52.8821 29.4911 46.4829C29.5177 46.44 29.5563 46.4049 29.5932 46.3596C35.6996 36.584 45.1349 32.1096 54.6163 31.7391C62.2717 21.7889 84.8539 -4.23293 103.574 7.38044C103.58 7.3843 103.582 7.39426 103.582 7.39426C103.589 7.39812 103.599 7.39564 103.605 7.39951C122.295 18.994 109.088 50.6884 103.556 62.0234C107.824 71.5173 107.068 82.1044 101.493 91.0912Z" fill="#323330"/>
<path d="M41.1453 41.8178C50.5496 42.0773 63.4193 47.1299 74.5533 54.0371C85.8101 61.0205 96.1516 70.4352 100.483 78.8158C101.326 73.9757 100.722 69.0089 98.5782 64.2561C98.5258 64.1222 98.5257 63.9863 98.4928 63.8475C97.7593 63.0364 97.5522 61.8403 98.0739 60.8084C107.427 42.2362 113.037 19.6729 100.728 12.0369C100.722 12.033 100.719 12.0231 100.713 12.0192C100.713 12.0192 100.703 12.0217 100.697 12.0178C89.3668 4.98894 73.4506 17.1934 61.2544 32.155C65.6249 32.8671 69.8425 34.399 73.55 36.699C74.8285 37.4922 75.2213 39.1673 74.4281 40.446C73.6349 41.7246 71.9556 42.1234 70.677 41.3301C62.0266 35.9637 50.0978 35.4176 41.1453 41.8178Z" fill="white"/>
<path d="M68.7201 76.4958C70.7202 73.2718 69.7238 69.019 66.4939 67.0152C63.2698 65.0151 59.0171 66.0115 57.017 69.2355C55.0132 72.4656 56.0096 76.7183 59.2336 78.7184C62.4637 80.7222 66.7164 79.7258 68.7201 76.4958Z" fill="white"/>
<path d="M96.7129 88.1851C99.3278 83.97 91.0737 70.6991 71.6804 58.6681C52.3974 46.7056 36.9196 45.1605 34.1799 49.29L34.1611 49.3204C34.1496 49.3389 34.1297 49.3435 34.1183 49.362C32.1966 52.4735 36.0055 60.5639 47.0117 70.0265C48.0935 70.9601 49.2746 71.8963 50.4882 72.8357C50.4891 70.608 51.0585 68.3517 52.3185 66.3206C55.9277 60.5027 63.5907 58.7074 69.4086 62.3166C75.2265 65.9259 77.0277 73.5925 73.4185 79.4104C72.1586 81.4414 70.384 82.9502 68.3885 83.9405C69.8218 84.6345 71.2319 85.2976 72.5895 85.8686C85.7965 91.4016 94.8076 91.2563 96.7129 88.1851Z" fill="white"/>
<path d="M94.8302 19.6038C91.2209 17.3647 82.6419 21.9891 79.3197 26.9344C78.4836 28.1864 76.7884 28.5159 75.5363 27.6798C74.288 26.8377 73.9549 25.1483 74.791 23.8964C79.2105 17.3185 90.7721 10.6728 97.7032 14.9727C98.9818 15.7659 99.3806 17.4452 98.5874 18.7238C97.7942 20.0024 96.1088 20.397 94.8302 19.6038Z" fill="#323330"/>
<path d="M133.214 77.738C132.673 77.738 131.88 77.68 130.836 77.564C129.754 77.448 128.748 77.2353 127.82 76.926L128.98 69.908C129.56 70.1013 130.102 70.2367 130.604 70.314C131.068 70.3913 131.668 70.43 132.402 70.43C133.756 70.43 134.703 70.024 135.244 69.212C135.786 68.4 136.056 67.2207 136.056 65.674V36.5H144.698V65.906C144.698 69.9273 143.712 72.9047 141.74 74.838C139.768 76.7713 136.926 77.738 133.214 77.738ZM145.51 27.684C145.51 29.2693 144.988 30.526 143.944 31.454C142.939 32.3433 141.74 32.788 140.348 32.788C138.956 32.788 137.738 32.3433 136.694 31.454C135.689 30.526 135.186 29.2693 135.186 27.684C135.186 26.0987 135.689 24.8613 136.694 23.972C137.738 23.044 138.956 22.58 140.348 22.58C141.74 22.58 142.939 23.044 143.944 23.972C144.988 24.8613 145.51 26.0987 145.51 27.684Z" fill="#323330"/>
<path d="M164.48 60.976C165.331 60.976 166.143 60.9567 166.916 60.918C167.689 60.8793 168.308 60.8213 168.772 60.744V54.19C168.424 54.1127 167.902 54.0353 167.206 53.958C166.51 53.8807 165.872 53.842 165.292 53.842C164.48 53.842 163.707 53.9 162.972 54.016C162.276 54.0933 161.657 54.2673 161.116 54.538C160.575 54.8087 160.149 55.176 159.84 55.64C159.531 56.104 159.376 56.684 159.376 57.38C159.376 58.7333 159.821 59.6807 160.71 60.222C161.638 60.7247 162.895 60.976 164.48 60.976ZM163.784 35.688C166.336 35.688 168.463 35.978 170.164 36.558C171.865 37.138 173.219 37.9693 174.224 39.052C175.268 40.1347 176.003 41.4493 176.428 42.996C176.853 44.5427 177.066 46.2633 177.066 48.158V66.138C175.829 66.4087 174.108 66.718 171.904 67.066C169.7 67.4527 167.032 67.646 163.9 67.646C161.928 67.646 160.13 67.472 158.506 67.124C156.921 66.776 155.548 66.2153 154.388 65.442C153.228 64.63 152.339 63.586 151.72 62.31C151.101 61.034 150.792 59.468 150.792 57.612C150.792 55.8333 151.14 54.3253 151.836 53.088C152.571 51.8507 153.537 50.8647 154.736 50.13C155.935 49.3953 157.307 48.8733 158.854 48.564C160.401 48.216 162.005 48.042 163.668 48.042C164.789 48.042 165.775 48.1 166.626 48.216C167.515 48.2933 168.231 48.4093 168.772 48.564V47.752C168.772 46.2827 168.327 45.1033 167.438 44.214C166.549 43.3247 165.002 42.88 162.798 42.88C161.329 42.88 159.879 42.996 158.448 43.228C157.017 43.4213 155.78 43.7113 154.736 44.098L153.634 37.138C154.137 36.9833 154.755 36.8287 155.49 36.674C156.263 36.4807 157.095 36.326 157.984 36.21C158.873 36.0553 159.801 35.9393 160.768 35.862C161.773 35.746 162.779 35.688 163.784 35.688Z" fill="#323330"/>
<path d="M192.438 67.008C190.466 63.1413 188.456 58.6173 186.406 53.436C184.396 48.2547 182.482 42.6093 180.664 36.5H189.828C190.215 38.008 190.66 39.6513 191.162 41.43C191.704 43.17 192.245 44.9487 192.786 46.766C193.366 48.5447 193.927 50.2847 194.468 51.986C195.048 53.6873 195.609 55.234 196.15 56.626C196.653 55.234 197.194 53.6873 197.774 51.986C198.354 50.2847 198.915 48.5447 199.456 46.766C200.036 44.9487 200.578 43.17 201.08 41.43C201.622 39.6513 202.086 38.008 202.472 36.5H211.404C209.587 42.6093 207.654 48.2547 205.604 53.436C203.594 58.6173 201.602 63.1413 199.63 67.008H192.438Z" fill="#323330"/>
<path d="M227.124 60.976C227.975 60.976 228.787 60.9567 229.56 60.918C230.334 60.8793 230.952 60.8213 231.416 60.744V54.19C231.068 54.1127 230.546 54.0353 229.85 53.958C229.154 53.8807 228.516 53.842 227.936 53.842C227.124 53.842 226.351 53.9 225.616 54.016C224.92 54.0933 224.302 54.2673 223.76 54.538C223.219 54.8087 222.794 55.176 222.484 55.64C222.175 56.104 222.02 56.684 222.02 57.38C222.02 58.7333 222.465 59.6807 223.354 60.222C224.282 60.7247 225.539 60.976 227.124 60.976ZM226.428 35.688C228.98 35.688 231.107 35.978 232.808 36.558C234.51 37.138 235.863 37.9693 236.868 39.052C237.912 40.1347 238.647 41.4493 239.072 42.996C239.498 44.5427 239.71 46.2633 239.71 48.158V66.138C238.473 66.4087 236.752 66.718 234.548 67.066C232.344 67.4527 229.676 67.646 226.544 67.646C224.572 67.646 222.774 67.472 221.15 67.124C219.565 66.776 218.192 66.2153 217.032 65.442C215.872 64.63 214.983 63.586 214.364 62.31C213.746 61.034 213.436 59.468 213.436 57.612C213.436 55.8333 213.784 54.3253 214.48 53.088C215.215 51.8507 216.182 50.8647 217.38 50.13C218.579 49.3953 219.952 48.8733 221.498 48.564C223.045 48.216 224.65 48.042 226.312 48.042C227.434 48.042 228.42 48.1 229.27 48.216C230.16 48.2933 230.875 48.4093 231.416 48.564V47.752C231.416 46.2827 230.972 45.1033 230.082 44.214C229.193 43.3247 227.646 42.88 225.442 42.88C223.973 42.88 222.523 42.996 221.092 43.228C219.662 43.4213 218.424 43.7113 217.38 44.098L216.278 37.138C216.781 36.9833 217.4 36.8287 218.134 36.674C218.908 36.4807 219.739 36.326 220.628 36.21C221.518 36.0553 222.446 35.9393 223.412 35.862C224.418 35.746 225.423 35.688 226.428 35.688Z" fill="#323330"/>
<path d="M256.283 60.802C257.868 60.802 258.99 60.6473 259.647 60.338C260.304 60.0287 260.633 59.4293 260.633 58.54C260.633 57.844 260.208 57.2447 259.357 56.742C258.506 56.2007 257.211 55.6013 255.471 54.944C254.118 54.4413 252.88 53.9193 251.759 53.378C250.676 52.8367 249.748 52.1987 248.975 51.464C248.202 50.6907 247.602 49.782 247.177 48.738C246.752 47.694 246.539 46.4373 246.539 44.968C246.539 42.1067 247.602 39.8447 249.729 38.182C251.856 36.5193 254.775 35.688 258.487 35.688C260.343 35.688 262.122 35.862 263.823 36.21C265.524 36.5193 266.878 36.8673 267.883 37.254L266.375 43.982C265.37 43.634 264.268 43.3247 263.069 43.054C261.909 42.7833 260.594 42.648 259.125 42.648C256.418 42.648 255.065 43.402 255.065 44.91C255.065 45.258 255.123 45.5673 255.239 45.838C255.355 46.1087 255.587 46.3793 255.935 46.65C256.283 46.882 256.747 47.1527 257.327 47.462C257.946 47.7327 258.719 48.042 259.647 48.39C261.542 49.086 263.108 49.782 264.345 50.478C265.582 51.1353 266.549 51.87 267.245 52.682C267.98 53.4553 268.482 54.3253 268.753 55.292C269.062 56.2587 269.217 57.38 269.217 58.656C269.217 61.672 268.076 63.9533 265.795 65.5C263.552 67.0467 260.362 67.82 256.225 67.82C253.518 67.82 251.256 67.588 249.439 67.124C247.66 66.66 246.423 66.2733 245.727 65.964L247.177 58.946C248.646 59.526 250.154 59.99 251.701 60.338C253.248 60.6473 254.775 60.802 256.283 60.802Z" fill="#323330"/>
<path d="M274.225 51.754C274.225 49.55 274.573 47.4813 275.269 45.548C276.004 43.576 277.048 41.8747 278.401 40.444C279.755 38.9747 281.398 37.8147 283.331 36.964C285.265 36.1133 287.469 35.688 289.943 35.688C291.567 35.688 293.056 35.8427 294.409 36.152C295.763 36.4227 297.077 36.8287 298.353 37.37L296.555 44.272C295.743 43.9627 294.854 43.692 293.887 43.46C292.921 43.228 291.838 43.112 290.639 43.112C288.087 43.112 286.173 43.9047 284.897 45.49C283.66 47.0753 283.041 49.1633 283.041 51.754C283.041 54.4993 283.621 56.626 284.781 58.134C285.98 59.642 288.049 60.396 290.987 60.396C292.031 60.396 293.153 60.2993 294.351 60.106C295.55 59.9127 296.652 59.6033 297.657 59.178L298.875 66.254C297.87 66.6793 296.613 67.0467 295.105 67.356C293.597 67.6653 291.935 67.82 290.117 67.82C287.333 67.82 284.936 67.414 282.925 66.602C280.915 65.7513 279.252 64.6107 277.937 63.18C276.661 61.7493 275.714 60.0673 275.095 58.134C274.515 56.162 274.225 54.0353 274.225 51.754Z" fill="#323330"/>
<path d="M323.061 44.156C322.288 43.9627 321.379 43.7693 320.335 43.576C319.291 43.344 318.17 43.228 316.971 43.228C316.43 43.228 315.773 43.286 314.999 43.402C314.265 43.4793 313.704 43.576 313.317 43.692V67.008H304.675V38.124C306.222 37.5827 308.039 37.08 310.127 36.616C312.254 36.1133 314.613 35.862 317.203 35.862C317.667 35.862 318.228 35.9007 318.885 35.978C319.543 36.0167 320.2 36.094 320.857 36.21C321.515 36.2873 322.172 36.4033 322.829 36.558C323.487 36.674 324.047 36.8287 324.511 37.022L323.061 44.156Z" fill="#323330"/>
<path d="M337.786 67.008H329.144V36.5H337.786V67.008ZM338.598 27.684C338.598 29.2693 338.076 30.526 337.032 31.454C336.027 32.3433 334.828 32.788 333.436 32.788C332.044 32.788 330.826 32.3433 329.782 31.454C328.777 30.526 328.274 29.2693 328.274 27.684C328.274 26.0987 328.777 24.8613 329.782 23.972C330.826 23.044 332.044 22.58 333.436 22.58C334.828 22.58 336.027 23.044 337.032 23.972C338.076 24.8613 338.598 26.0987 338.598 27.684Z" fill="#323330"/>
<path d="M365.456 51.986C365.456 49.318 364.857 47.1913 363.658 45.606C362.459 43.982 360.68 43.17 358.322 43.17C357.548 43.17 356.833 43.2087 356.176 43.286C355.518 43.3247 354.977 43.3827 354.552 43.46V59.062C355.093 59.41 355.789 59.7 356.64 59.932C357.529 60.164 358.418 60.28 359.308 60.28C363.406 60.28 365.456 57.5153 365.456 51.986ZM374.272 51.754C374.272 54.1127 373.982 56.2587 373.402 58.192C372.822 60.1253 371.971 61.788 370.85 63.18C369.728 64.572 368.336 65.6547 366.674 66.428C365.011 67.2013 363.097 67.588 360.932 67.588C359.733 67.588 358.612 67.472 357.568 67.24C356.524 67.008 355.519 66.6793 354.552 66.254V77.738H345.91V37.544C346.683 37.312 347.573 37.0993 348.578 36.906C349.583 36.674 350.627 36.4807 351.71 36.326C352.831 36.1713 353.952 36.0553 355.074 35.978C356.234 35.862 357.336 35.804 358.38 35.804C360.893 35.804 363.136 36.1907 365.108 36.964C367.08 37.6987 368.742 38.762 370.096 40.154C371.449 41.5073 372.474 43.17 373.17 45.142C373.904 47.114 374.272 49.318 374.272 51.754Z" fill="#323330"/>
<path d="M380.624 28.902L389.266 27.51V36.5H399.648V43.692H389.266V54.422C389.266 56.2393 389.575 57.6893 390.194 58.772C390.851 59.8547 392.146 60.396 394.08 60.396C395.008 60.396 395.955 60.3187 396.922 60.164C397.927 59.9707 398.836 59.7193 399.648 59.41L400.866 66.138C399.822 66.5633 398.662 66.9307 397.386 67.24C396.11 67.5493 394.544 67.704 392.688 67.704C390.329 67.704 388.376 67.3947 386.83 66.776C385.283 66.1187 384.046 65.2293 383.118 64.108C382.19 62.948 381.532 61.556 381.146 59.932C380.798 58.308 380.624 56.51 380.624 54.538V28.902Z" fill="#323330"/>
<path d="M403.509 45.78H420.329V53.61H403.509V45.78Z" fill="#323330"/>
<path d="M425.83 37.544C427.299 37.1187 429.194 36.732 431.514 36.384C433.834 35.9973 436.27 35.804 438.822 35.804C441.412 35.804 443.558 36.152 445.26 36.848C447 37.5053 448.372 38.4527 449.378 39.69C450.383 40.9273 451.098 42.3967 451.524 44.098C451.949 45.7993 452.162 47.694 452.162 49.782V67.008H443.52V50.826C443.52 48.042 443.152 46.07 442.418 44.91C441.683 43.75 440.31 43.17 438.3 43.17C437.681 43.17 437.024 43.2087 436.328 43.286C435.632 43.3247 435.013 43.3827 434.472 43.46V67.008H425.83V37.544Z" fill="#323330"/>
<path d="M488.52 51.696C488.52 54.0933 488.172 56.2973 487.476 58.308C486.78 60.28 485.775 61.9813 484.46 63.412C483.145 64.804 481.56 65.8867 479.704 66.66C477.887 67.4333 475.837 67.82 473.556 67.82C471.313 67.82 469.264 67.4333 467.408 66.66C465.591 65.8867 464.025 64.804 462.71 63.412C461.395 61.9813 460.371 60.28 459.636 58.308C458.901 56.2973 458.534 54.0933 458.534 51.696C458.534 49.2987 458.901 47.114 459.636 45.142C460.409 43.17 461.453 41.488 462.768 40.096C464.121 38.704 465.707 37.6213 467.524 36.848C469.38 36.0747 471.391 35.688 473.556 35.688C475.76 35.688 477.771 36.0747 479.588 36.848C481.444 37.6213 483.029 38.704 484.344 40.096C485.659 41.488 486.683 43.17 487.418 45.142C488.153 47.114 488.52 49.2987 488.52 51.696ZM479.704 51.696C479.704 49.028 479.163 46.94 478.08 45.432C477.036 43.8853 475.528 43.112 473.556 43.112C471.584 43.112 470.057 43.8853 468.974 45.432C467.891 46.94 467.35 49.028 467.35 51.696C467.35 54.364 467.891 56.4907 468.974 58.076C470.057 59.6227 471.584 60.396 473.556 60.396C475.528 60.396 477.036 59.6227 478.08 58.076C479.163 56.4907 479.704 54.364 479.704 51.696Z" fill="#323330"/>
<path d="M494.925 28.902L503.567 27.51V36.5H513.949V43.692H503.567V54.422C503.567 56.2393 503.876 57.6893 504.495 58.772C505.152 59.8547 506.447 60.396 508.381 60.396C509.309 60.396 510.256 60.3187 511.223 60.164C512.228 59.9707 513.137 59.7193 513.949 59.41L515.167 66.138C514.123 66.5633 512.963 66.9307 511.687 67.24C510.411 67.5493 508.845 67.704 506.989 67.704C504.63 67.704 502.677 67.3947 501.131 66.776C499.584 66.1187 498.347 65.2293 497.419 64.108C496.491 62.948 495.833 61.556 495.447 59.932C495.099 58.308 494.925 56.51 494.925 54.538V28.902Z" fill="#323330"/>
<path d="M529.628 67.008H520.986V36.5H529.628V67.008ZM530.44 27.684C530.44 29.2693 529.918 30.526 528.874 31.454C527.869 32.3433 526.67 32.788 525.278 32.788C523.886 32.788 522.668 32.3433 521.624 31.454C520.619 30.526 520.116 29.2693 520.116 27.684C520.116 26.0987 520.619 24.8613 521.624 23.972C522.668 23.044 523.886 22.58 525.278 22.58C526.67 22.58 527.869 23.044 528.874 23.972C529.918 24.8613 530.44 26.0987 530.44 27.684Z" fill="#323330"/>
<path d="M550.976 22C552.6 22 553.934 22.1353 554.978 22.406C556.06 22.6767 556.969 22.9667 557.704 23.276L556.196 30.062C555.577 29.7913 554.881 29.598 554.108 29.482C553.373 29.366 552.619 29.308 551.846 29.308C550.802 29.308 549.912 29.4627 549.178 29.772C548.482 30.0427 547.921 30.4293 547.496 30.932C547.109 31.4347 546.819 32.034 546.626 32.73C546.471 33.426 546.394 34.18 546.394 34.992V36.5H557.066V43.692H546.394V67.008H537.752V34.876C537.752 30.932 538.854 27.8 541.058 25.48C543.3 23.16 546.606 22 550.976 22ZM570.696 67.008H562.054V36.5H570.696V67.008ZM571.508 27.684C571.508 29.2693 570.986 30.526 569.942 31.454C568.936 32.3433 567.738 32.788 566.346 32.788C564.954 32.788 563.736 32.3433 562.692 31.454C561.686 30.526 561.184 29.2693 561.184 27.684C561.184 26.0987 561.686 24.8613 562.692 23.972C563.736 23.044 564.954 22.58 566.346 22.58C567.738 22.58 568.936 23.044 569.942 23.972C570.986 24.8613 571.508 26.0987 571.508 27.684Z" fill="#323330"/>
<path d="M577.366 51.754C577.366 49.55 577.714 47.4813 578.41 45.548C579.145 43.576 580.189 41.8747 581.542 40.444C582.895 38.9747 584.539 37.8147 586.472 36.964C588.405 36.1133 590.609 35.688 593.084 35.688C594.708 35.688 596.197 35.8427 597.55 36.152C598.903 36.4227 600.218 36.8287 601.494 37.37L599.696 44.272C598.884 43.9627 597.995 43.692 597.028 43.46C596.061 43.228 594.979 43.112 593.78 43.112C591.228 43.112 589.314 43.9047 588.038 45.49C586.801 47.0753 586.182 49.1633 586.182 51.754C586.182 54.4993 586.762 56.626 587.922 58.134C589.121 59.642 591.189 60.396 594.128 60.396C595.172 60.396 596.293 60.2993 597.492 60.106C598.691 59.9127 599.793 59.6033 600.798 59.178L602.016 66.254C601.011 66.6793 599.754 67.0467 598.246 67.356C596.738 67.6653 595.075 67.82 593.258 67.82C590.474 67.82 588.077 67.414 586.066 66.602C584.055 65.7513 582.393 64.6107 581.078 63.18C579.802 61.7493 578.855 60.0673 578.236 58.134C577.656 56.162 577.366 54.0353 577.366 51.754Z" fill="#323330"/>
<path d="M618.001 60.976C618.852 60.976 619.664 60.9567 620.437 60.918C621.211 60.8793 621.829 60.8213 622.293 60.744V54.19C621.945 54.1127 621.423 54.0353 620.727 53.958C620.031 53.8807 619.393 53.842 618.813 53.842C618.001 53.842 617.228 53.9 616.493 54.016C615.797 54.0933 615.179 54.2673 614.637 54.538C614.096 54.8087 613.671 55.176 613.361 55.64C613.052 56.104 612.897 56.684 612.897 57.38C612.897 58.7333 613.342 59.6807 614.231 60.222C615.159 60.7247 616.416 60.976 618.001 60.976ZM617.305 35.688C619.857 35.688 621.984 35.978 623.685 36.558C625.387 37.138 626.74 37.9693 627.745 39.052C628.789 40.1347 629.524 41.4493 629.949 42.996C630.375 44.5427 630.587 46.2633 630.587 48.158V66.138C629.35 66.4087 627.629 66.718 625.425 67.066C623.221 67.4527 620.553 67.646 617.421 67.646C615.449 67.646 613.651 67.472 612.027 67.124C610.442 66.776 609.069 66.2153 607.909 65.442C606.749 64.63 605.86 63.586 605.241 62.31C604.623 61.034 604.313 59.468 604.313 57.612C604.313 55.8333 604.661 54.3253 605.357 53.088C606.092 51.8507 607.059 50.8647 608.257 50.13C609.456 49.3953 610.829 48.8733 612.375 48.564C613.922 48.216 615.527 48.042 617.189 48.042C618.311 48.042 619.297 48.1 620.147 48.216C621.037 48.2933 621.752 48.4093 622.293 48.564V47.752C622.293 46.2827 621.849 45.1033 620.959 44.214C620.07 43.3247 618.523 42.88 616.319 42.88C614.85 42.88 613.4 42.996 611.969 43.228C610.539 43.4213 609.301 43.7113 608.257 44.098L607.155 37.138C607.658 36.9833 608.277 36.8287 609.011 36.674C609.785 36.4807 610.616 36.326 611.505 36.21C612.395 36.0553 613.323 35.9393 614.289 35.862C615.295 35.746 616.3 35.688 617.305 35.688Z" fill="#323330"/>
<path d="M638.112 28.902L646.754 27.51V36.5H657.136V43.692H646.754V54.422C646.754 56.2393 647.063 57.6893 647.682 58.772C648.339 59.8547 649.635 60.396 651.568 60.396C652.496 60.396 653.443 60.3187 654.41 60.164C655.415 59.9707 656.324 59.7193 657.136 59.41L658.354 66.138C657.31 66.5633 656.15 66.9307 654.874 67.24C653.598 67.5493 652.032 67.704 650.176 67.704C647.817 67.704 645.865 67.3947 644.318 66.776C642.771 66.1187 641.534 65.2293 640.606 64.108C639.678 62.948 639.021 61.556 638.634 59.932C638.286 58.308 638.112 56.51 638.112 54.538V28.902Z" fill="#323330"/>
<path d="M672.815 67.008H664.174V36.5H672.815V67.008ZM673.628 27.684C673.628 29.2693 673.106 30.526 672.062 31.454C671.056 32.3433 669.858 32.788 668.466 32.788C667.074 32.788 665.856 32.3433 664.812 31.454C663.806 30.526 663.304 29.2693 663.304 27.684C663.304 26.0987 663.806 24.8613 664.812 23.972C665.856 23.044 667.074 22.58 668.466 22.58C669.858 22.58 671.056 23.044 672.062 23.972C673.106 24.8613 673.628 26.0987 673.628 27.684Z" fill="#323330"/>
<path d="M709.475 51.696C709.475 54.0933 709.127 56.2973 708.431 58.308C707.735 60.28 706.73 61.9813 705.415 63.412C704.1 64.804 702.515 65.8867 700.659 66.66C698.842 67.4333 696.792 67.82 694.511 67.82C692.268 67.82 690.219 67.4333 688.363 66.66C686.546 65.8867 684.98 64.804 683.665 63.412C682.35 61.9813 681.326 60.28 680.591 58.308C679.856 56.2973 679.489 54.0933 679.489 51.696C679.489 49.2987 679.856 47.114 680.591 45.142C681.364 43.17 682.408 41.488 683.723 40.096C685.076 38.704 686.662 37.6213 688.479 36.848C690.335 36.0747 692.346 35.688 694.511 35.688C696.715 35.688 698.726 36.0747 700.543 36.848C702.399 37.6213 703.984 38.704 705.299 40.096C706.614 41.488 707.638 43.17 708.373 45.142C709.108 47.114 709.475 49.2987 709.475 51.696ZM700.659 51.696C700.659 49.028 700.118 46.94 699.035 45.432C697.991 43.8853 696.483 43.112 694.511 43.112C692.539 43.112 691.012 43.8853 689.929 45.432C688.846 46.94 688.305 49.028 688.305 51.696C688.305 54.364 688.846 56.4907 689.929 58.076C691.012 59.6227 692.539 60.396 694.511 60.396C696.483 60.396 697.991 59.6227 699.035 58.076C700.118 56.4907 700.659 54.364 700.659 51.696Z" fill="#323330"/>
<path d="M716.17 37.544C717.639 37.1187 719.534 36.732 721.854 36.384C724.174 35.9973 726.61 35.804 729.162 35.804C731.752 35.804 733.898 36.152 735.6 36.848C737.34 37.5053 738.712 38.4527 739.718 39.69C740.723 40.9273 741.438 42.3967 741.864 44.098C742.289 45.7993 742.502 47.694 742.502 49.782V67.008H733.86V50.826C733.86 48.042 733.492 46.07 732.758 44.91C732.023 43.75 730.65 43.17 728.64 43.17C728.021 43.17 727.364 43.2087 726.668 43.286C725.972 43.3247 725.353 43.3827 724.812 43.46V67.008H716.17V37.544Z" fill="#323330"/>
<path d="M759.082 60.802C760.667 60.802 761.789 60.6473 762.446 60.338C763.103 60.0287 763.432 59.4293 763.432 58.54C763.432 57.844 763.007 57.2447 762.156 56.742C761.305 56.2007 760.01 55.6013 758.27 54.944C756.917 54.4413 755.679 53.9193 754.558 53.378C753.475 52.8367 752.547 52.1987 751.774 51.464C751.001 50.6907 750.401 49.782 749.976 48.738C749.551 47.694 749.338 46.4373 749.338 44.968C749.338 42.1067 750.401 39.8447 752.528 38.182C754.655 36.5193 757.574 35.688 761.286 35.688C763.142 35.688 764.921 35.862 766.622 36.21C768.323 36.5193 769.677 36.8673 770.682 37.254L769.174 43.982C768.169 43.634 767.067 43.3247 765.868 43.054C764.708 42.7833 763.393 42.648 761.924 42.648C759.217 42.648 757.864 43.402 757.864 44.91C757.864 45.258 757.922 45.5673 758.038 45.838C758.154 46.1087 758.386 46.3793 758.734 46.65C759.082 46.882 759.546 47.1527 760.126 47.462C760.745 47.7327 761.518 48.042 762.446 48.39C764.341 49.086 765.907 49.782 767.144 50.478C768.381 51.1353 769.348 51.87 770.044 52.682C770.779 53.4553 771.281 54.3253 771.552 55.292C771.861 56.2587 772.016 57.38 772.016 58.656C772.016 61.672 770.875 63.9533 768.594 65.5C766.351 67.0467 763.161 67.82 759.024 67.82C756.317 67.82 754.055 67.588 752.238 67.124C750.459 66.66 749.222 66.2733 748.526 65.964L749.976 58.946C751.445 59.526 752.953 59.99 754.5 60.338C756.047 60.6473 757.574 60.802 759.082 60.802Z" fill="#323330"/>
<path d="M133.214 77.738C132.673 77.738 131.88 77.68 130.836 77.564C129.754 77.448 128.748 77.2353 127.82 76.926L128.98 69.908C129.56 70.1013 130.102 70.2367 130.604 70.314C131.068 70.3913 131.668 70.43 132.402 70.43C133.756 70.43 134.703 70.024 135.244 69.212C135.786 68.4 136.056 67.2207 136.056 65.674V36.5H144.698V65.906C144.698 69.9273 143.712 72.9047 141.74 74.838C139.768 76.7713 136.926 77.738 133.214 77.738ZM145.51 27.684C145.51 29.2693 144.988 30.526 143.944 31.454C142.939 32.3433 141.74 32.788 140.348 32.788C138.956 32.788 137.738 32.3433 136.694 31.454C135.689 30.526 135.186 29.2693 135.186 27.684C135.186 26.0987 135.689 24.8613 136.694 23.972C137.738 23.044 138.956 22.58 140.348 22.58C141.74 22.58 142.939 23.044 143.944 23.972C144.988 24.8613 145.51 26.0987 145.51 27.684Z" stroke="#323330"/>
<path d="M164.48 60.976C165.331 60.976 166.143 60.9567 166.916 60.918C167.689 60.8793 168.308 60.8213 168.772 60.744V54.19C168.424 54.1127 167.902 54.0353 167.206 53.958C166.51 53.8807 165.872 53.842 165.292 53.842C164.48 53.842 163.707 53.9 162.972 54.016C162.276 54.0933 161.657 54.2673 161.116 54.538C160.575 54.8087 160.149 55.176 159.84 55.64C159.531 56.104 159.376 56.684 159.376 57.38C159.376 58.7333 159.821 59.6807 160.71 60.222C161.638 60.7247 162.895 60.976 164.48 60.976ZM163.784 35.688C166.336 35.688 168.463 35.978 170.164 36.558C171.865 37.138 173.219 37.9693 174.224 39.052C175.268 40.1347 176.003 41.4493 176.428 42.996C176.853 44.5427 177.066 46.2633 177.066 48.158V66.138C175.829 66.4087 174.108 66.718 171.904 67.066C169.7 67.4527 167.032 67.646 163.9 67.646C161.928 67.646 160.13 67.472 158.506 67.124C156.921 66.776 155.548 66.2153 154.388 65.442C153.228 64.63 152.339 63.586 151.72 62.31C151.101 61.034 150.792 59.468 150.792 57.612C150.792 55.8333 151.14 54.3253 151.836 53.088C152.571 51.8507 153.537 50.8647 154.736 50.13C155.935 49.3953 157.307 48.8733 158.854 48.564C160.401 48.216 162.005 48.042 163.668 48.042C164.789 48.042 165.775 48.1 166.626 48.216C167.515 48.2933 168.231 48.4093 168.772 48.564V47.752C168.772 46.2827 168.327 45.1033 167.438 44.214C166.549 43.3247 165.002 42.88 162.798 42.88C161.329 42.88 159.879 42.996 158.448 43.228C157.017 43.4213 155.78 43.7113 154.736 44.098L153.634 37.138C154.137 36.9833 154.755 36.8287 155.49 36.674C156.263 36.4807 157.095 36.326 157.984 36.21C158.873 36.0553 159.801 35.9393 160.768 35.862C161.773 35.746 162.779 35.688 163.784 35.688Z" stroke="#323330"/>
<path d="M192.438 67.008C190.466 63.1413 188.456 58.6173 186.406 53.436C184.396 48.2547 182.482 42.6093 180.664 36.5H189.828C190.215 38.008 190.66 39.6513 191.162 41.43C191.704 43.17 192.245 44.9487 192.786 46.766C193.366 48.5447 193.927 50.2847 194.468 51.986C195.048 53.6873 195.609 55.234 196.15 56.626C196.653 55.234 197.194 53.6873 197.774 51.986C198.354 50.2847 198.915 48.5447 199.456 46.766C200.036 44.9487 200.578 43.17 201.08 41.43C201.622 39.6513 202.086 38.008 202.472 36.5H211.404C209.587 42.6093 207.654 48.2547 205.604 53.436C203.594 58.6173 201.602 63.1413 199.63 67.008H192.438Z" stroke="#323330"/>
<path d="M227.124 60.976C227.975 60.976 228.787 60.9567 229.56 60.918C230.334 60.8793 230.952 60.8213 231.416 60.744V54.19C231.068 54.1127 230.546 54.0353 229.85 53.958C229.154 53.8807 228.516 53.842 227.936 53.842C227.124 53.842 226.351 53.9 225.616 54.016C224.92 54.0933 224.302 54.2673 223.76 54.538C223.219 54.8087 222.794 55.176 222.484 55.64C222.175 56.104 222.02 56.684 222.02 57.38C222.02 58.7333 222.465 59.6807 223.354 60.222C224.282 60.7247 225.539 60.976 227.124 60.976ZM226.428 35.688C228.98 35.688 231.107 35.978 232.808 36.558C234.51 37.138 235.863 37.9693 236.868 39.052C237.912 40.1347 238.647 41.4493 239.072 42.996C239.498 44.5427 239.71 46.2633 239.71 48.158V66.138C238.473 66.4087 236.752 66.718 234.548 67.066C232.344 67.4527 229.676 67.646 226.544 67.646C224.572 67.646 222.774 67.472 221.15 67.124C219.565 66.776 218.192 66.2153 217.032 65.442C215.872 64.63 214.983 63.586 214.364 62.31C213.746 61.034 213.436 59.468 213.436 57.612C213.436 55.8333 213.784 54.3253 214.48 53.088C215.215 51.8507 216.182 50.8647 217.38 50.13C218.579 49.3953 219.952 48.8733 221.498 48.564C223.045 48.216 224.65 48.042 226.312 48.042C227.434 48.042 228.42 48.1 229.27 48.216C230.16 48.2933 230.875 48.4093 231.416 48.564V47.752C231.416 46.2827 230.972 45.1033 230.082 44.214C229.193 43.3247 227.646 42.88 225.442 42.88C223.973 42.88 222.523 42.996 221.092 43.228C219.662 43.4213 218.424 43.7113 217.38 44.098L216.278 37.138C216.781 36.9833 217.4 36.8287 218.134 36.674C218.908 36.4807 219.739 36.326 220.628 36.21C221.518 36.0553 222.446 35.9393 223.412 35.862C224.418 35.746 225.423 35.688 226.428 35.688Z" stroke="#323330"/>
<path d="M256.283 60.802C257.868 60.802 258.99 60.6473 259.647 60.338C260.304 60.0287 260.633 59.4293 260.633 58.54C260.633 57.844 260.208 57.2447 259.357 56.742C258.506 56.2007 257.211 55.6013 255.471 54.944C254.118 54.4413 252.88 53.9193 251.759 53.378C250.676 52.8367 249.748 52.1987 248.975 51.464C248.202 50.6907 247.602 49.782 247.177 48.738C246.752 47.694 246.539 46.4373 246.539 44.968C246.539 42.1067 247.602 39.8447 249.729 38.182C251.856 36.5193 254.775 35.688 258.487 35.688C260.343 35.688 262.122 35.862 263.823 36.21C265.524 36.5193 266.878 36.8673 267.883 37.254L266.375 43.982C265.37 43.634 264.268 43.3247 263.069 43.054C261.909 42.7833 260.594 42.648 259.125 42.648C256.418 42.648 255.065 43.402 255.065 44.91C255.065 45.258 255.123 45.5673 255.239 45.838C255.355 46.1087 255.587 46.3793 255.935 46.65C256.283 46.882 256.747 47.1527 257.327 47.462C257.946 47.7327 258.719 48.042 259.647 48.39C261.542 49.086 263.108 49.782 264.345 50.478C265.582 51.1353 266.549 51.87 267.245 52.682C267.98 53.4553 268.482 54.3253 268.753 55.292C269.062 56.2587 269.217 57.38 269.217 58.656C269.217 61.672 268.076 63.9533 265.795 65.5C263.552 67.0467 260.362 67.82 256.225 67.82C253.518 67.82 251.256 67.588 249.439 67.124C247.66 66.66 246.423 66.2733 245.727 65.964L247.177 58.946C248.646 59.526 250.154 59.99 251.701 60.338C253.248 60.6473 254.775 60.802 256.283 60.802Z" stroke="#323330"/>
<path d="M274.225 51.754C274.225 49.55 274.573 47.4813 275.269 45.548C276.004 43.576 277.048 41.8747 278.401 40.444C279.755 38.9747 281.398 37.8147 283.331 36.964C285.265 36.1133 287.469 35.688 289.943 35.688C291.567 35.688 293.056 35.8427 294.409 36.152C295.763 36.4227 297.077 36.8287 298.353 37.37L296.555 44.272C295.743 43.9627 294.854 43.692 293.887 43.46C292.921 43.228 291.838 43.112 290.639 43.112C288.087 43.112 286.173 43.9047 284.897 45.49C283.66 47.0753 283.041 49.1633 283.041 51.754C283.041 54.4993 283.621 56.626 284.781 58.134C285.98 59.642 288.049 60.396 290.987 60.396C292.031 60.396 293.153 60.2993 294.351 60.106C295.55 59.9127 296.652 59.6033 297.657 59.178L298.875 66.254C297.87 66.6793 296.613 67.0467 295.105 67.356C293.597 67.6653 291.935 67.82 290.117 67.82C287.333 67.82 284.936 67.414 282.925 66.602C280.915 65.7513 279.252 64.6107 277.937 63.18C276.661 61.7493 275.714 60.0673 275.095 58.134C274.515 56.162 274.225 54.0353 274.225 51.754Z" stroke="#323330"/>
<path d="M323.061 44.156C322.288 43.9627 321.379 43.7693 320.335 43.576C319.291 43.344 318.17 43.228 316.971 43.228C316.43 43.228 315.773 43.286 314.999 43.402C314.265 43.4793 313.704 43.576 313.317 43.692V67.008H304.675V38.124C306.222 37.5827 308.039 37.08 310.127 36.616C312.254 36.1133 314.613 35.862 317.203 35.862C317.667 35.862 318.228 35.9007 318.885 35.978C319.543 36.0167 320.2 36.094 320.857 36.21C321.515 36.2873 322.172 36.4033 322.829 36.558C323.487 36.674 324.047 36.8287 324.511 37.022L323.061 44.156Z" stroke="#323330"/>
<path d="M337.786 67.008H329.144V36.5H337.786V67.008ZM338.598 27.684C338.598 29.2693 338.076 30.526 337.032 31.454C336.027 32.3433 334.828 32.788 333.436 32.788C332.044 32.788 330.826 32.3433 329.782 31.454C328.777 30.526 328.274 29.2693 328.274 27.684C328.274 26.0987 328.777 24.8613 329.782 23.972C330.826 23.044 332.044 22.58 333.436 22.58C334.828 22.58 336.027 23.044 337.032 23.972C338.076 24.8613 338.598 26.0987 338.598 27.684Z" stroke="#323330"/>
<path d="M365.456 51.986C365.456 49.318 364.857 47.1913 363.658 45.606C362.459 43.982 360.68 43.17 358.322 43.17C357.548 43.17 356.833 43.2087 356.176 43.286C355.518 43.3247 354.977 43.3827 354.552 43.46V59.062C355.093 59.41 355.789 59.7 356.64 59.932C357.529 60.164 358.418 60.28 359.308 60.28C363.406 60.28 365.456 57.5153 365.456 51.986ZM374.272 51.754C374.272 54.1127 373.982 56.2587 373.402 58.192C372.822 60.1253 371.971 61.788 370.85 63.18C369.728 64.572 368.336 65.6547 366.674 66.428C365.011 67.2013 363.097 67.588 360.932 67.588C359.733 67.588 358.612 67.472 357.568 67.24C356.524 67.008 355.519 66.6793 354.552 66.254V77.738H345.91V37.544C346.683 37.312 347.573 37.0993 348.578 36.906C349.583 36.674 350.627 36.4807 351.71 36.326C352.831 36.1713 353.952 36.0553 355.074 35.978C356.234 35.862 357.336 35.804 358.38 35.804C360.893 35.804 363.136 36.1907 365.108 36.964C367.08 37.6987 368.742 38.762 370.096 40.154C371.449 41.5073 372.474 43.17 373.17 45.142C373.904 47.114 374.272 49.318 374.272 51.754Z" stroke="#323330"/>
<path d="M380.624 28.902L389.266 27.51V36.5H399.648V43.692H389.266V54.422C389.266 56.2393 389.575 57.6893 390.194 58.772C390.851 59.8547 392.146 60.396 394.08 60.396C395.008 60.396 395.955 60.3187 396.922 60.164C397.927 59.9707 398.836 59.7193 399.648 59.41L400.866 66.138C399.822 66.5633 398.662 66.9307 397.386 67.24C396.11 67.5493 394.544 67.704 392.688 67.704C390.329 67.704 388.376 67.3947 386.83 66.776C385.283 66.1187 384.046 65.2293 383.118 64.108C382.19 62.948 381.532 61.556 381.146 59.932C380.798 58.308 380.624 56.51 380.624 54.538V28.902Z" stroke="#323330"/>
<path d="M403.509 45.78H420.329V53.61H403.509V45.78Z" stroke="#323330"/>
<path d="M425.83 37.544C427.299 37.1187 429.194 36.732 431.514 36.384C433.834 35.9973 436.27 35.804 438.822 35.804C441.412 35.804 443.558 36.152 445.26 36.848C447 37.5053 448.372 38.4527 449.378 39.69C450.383 40.9273 451.098 42.3967 451.524 44.098C451.949 45.7993 452.162 47.694 452.162 49.782V67.008H443.52V50.826C443.52 48.042 443.152 46.07 442.418 44.91C441.683 43.75 440.31 43.17 438.3 43.17C437.681 43.17 437.024 43.2087 436.328 43.286C435.632 43.3247 435.013 43.3827 434.472 43.46V67.008H425.83V37.544Z" stroke="#323330"/>
<path d="M488.52 51.696C488.52 54.0933 488.172 56.2973 487.476 58.308C486.78 60.28 485.775 61.9813 484.46 63.412C483.145 64.804 481.56 65.8867 479.704 66.66C477.887 67.4333 475.837 67.82 473.556 67.82C471.313 67.82 469.264 67.4333 467.408 66.66C465.591 65.8867 464.025 64.804 462.71 63.412C461.395 61.9813 460.371 60.28 459.636 58.308C458.901 56.2973 458.534 54.0933 458.534 51.696C458.534 49.2987 458.901 47.114 459.636 45.142C460.409 43.17 461.453 41.488 462.768 40.096C464.121 38.704 465.707 37.6213 467.524 36.848C469.38 36.0747 471.391 35.688 473.556 35.688C475.76 35.688 477.771 36.0747 479.588 36.848C481.444 37.6213 483.029 38.704 484.344 40.096C485.659 41.488 486.683 43.17 487.418 45.142C488.153 47.114 488.52 49.2987 488.52 51.696ZM479.704 51.696C479.704 49.028 479.163 46.94 478.08 45.432C477.036 43.8853 475.528 43.112 473.556 43.112C471.584 43.112 470.057 43.8853 468.974 45.432C467.891 46.94 467.35 49.028 467.35 51.696C467.35 54.364 467.891 56.4907 468.974 58.076C470.057 59.6227 471.584 60.396 473.556 60.396C475.528 60.396 477.036 59.6227 478.08 58.076C479.163 56.4907 479.704 54.364 479.704 51.696Z" stroke="#323330"/>
<path d="M494.925 28.902L503.567 27.51V36.5H513.949V43.692H503.567V54.422C503.567 56.2393 503.876 57.6893 504.495 58.772C505.152 59.8547 506.447 60.396 508.381 60.396C509.309 60.396 510.256 60.3187 511.223 60.164C512.228 59.9707 513.137 59.7193 513.949 59.41L515.167 66.138C514.123 66.5633 512.963 66.9307 511.687 67.24C510.411 67.5493 508.845 67.704 506.989 67.704C504.63 67.704 502.677 67.3947 501.131 66.776C499.584 66.1187 498.347 65.2293 497.419 64.108C496.491 62.948 495.833 61.556 495.447 59.932C495.099 58.308 494.925 56.51 494.925 54.538V28.902Z" stroke="#323330"/>
<path d="M529.628 67.008H520.986V36.5H529.628V67.008ZM530.44 27.684C530.44 29.2693 529.918 30.526 528.874 31.454C527.869 32.3433 526.67 32.788 525.278 32.788C523.886 32.788 522.668 32.3433 521.624 31.454C520.619 30.526 520.116 29.2693 520.116 27.684C520.116 26.0987 520.619 24.8613 521.624 23.972C522.668 23.044 523.886 22.58 525.278 22.58C526.67 22.58 527.869 23.044 528.874 23.972C529.918 24.8613 530.44 26.0987 530.44 27.684Z" stroke="#323330"/>
<path d="M550.976 22C552.6 22 553.934 22.1353 554.978 22.406C556.06 22.6767 556.969 22.9667 557.704 23.276L556.196 30.062C555.577 29.7913 554.881 29.598 554.108 29.482C553.373 29.366 552.619 29.308 551.846 29.308C550.802 29.308 549.912 29.4627 549.178 29.772C548.482 30.0427 547.921 30.4293 547.496 30.932C547.109 31.4347 546.819 32.034 546.626 32.73C546.471 33.426 546.394 34.18 546.394 34.992V36.5H557.066V43.692H546.394V67.008H537.752V34.876C537.752 30.932 538.854 27.8 541.058 25.48C543.3 23.16 546.606 22 550.976 22ZM570.696 67.008H562.054V36.5H570.696V67.008ZM571.508 27.684C571.508 29.2693 570.986 30.526 569.942 31.454C568.936 32.3433 567.738 32.788 566.346 32.788C564.954 32.788 563.736 32.3433 562.692 31.454C561.686 30.526 561.184 29.2693 561.184 27.684C561.184 26.0987 561.686 24.8613 562.692 23.972C563.736 23.044 564.954 22.58 566.346 22.58C567.738 22.58 568.936 23.044 569.942 23.972C570.986 24.8613 571.508 26.0987 571.508 27.684Z" stroke="#323330"/>
<path d="M577.366 51.754C577.366 49.55 577.714 47.4813 578.41 45.548C579.145 43.576 580.189 41.8747 581.542 40.444C582.895 38.9747 584.539 37.8147 586.472 36.964C588.405 36.1133 590.609 35.688 593.084 35.688C594.708 35.688 596.197 35.8427 597.55 36.152C598.903 36.4227 600.218 36.8287 601.494 37.37L599.696 44.272C598.884 43.9627 597.995 43.692 597.028 43.46C596.061 43.228 594.979 43.112 593.78 43.112C591.228 43.112 589.314 43.9047 588.038 45.49C586.801 47.0753 586.182 49.1633 586.182 51.754C586.182 54.4993 586.762 56.626 587.922 58.134C589.121 59.642 591.189 60.396 594.128 60.396C595.172 60.396 596.293 60.2993 597.492 60.106C598.691 59.9127 599.793 59.6033 600.798 59.178L602.016 66.254C601.011 66.6793 599.754 67.0467 598.246 67.356C596.738 67.6653 595.075 67.82 593.258 67.82C590.474 67.82 588.077 67.414 586.066 66.602C584.055 65.7513 582.393 64.6107 581.078 63.18C579.802 61.7493 578.855 60.0673 578.236 58.134C577.656 56.162 577.366 54.0353 577.366 51.754Z" stroke="#323330"/>
<path d="M618.001 60.976C618.852 60.976 619.664 60.9567 620.437 60.918C621.211 60.8793 621.829 60.8213 622.293 60.744V54.19C621.945 54.1127 621.423 54.0353 620.727 53.958C620.031 53.8807 619.393 53.842 618.813 53.842C618.001 53.842 617.228 53.9 616.493 54.016C615.797 54.0933 615.179 54.2673 614.637 54.538C614.096 54.8087 613.671 55.176 613.361 55.64C613.052 56.104 612.897 56.684 612.897 57.38C612.897 58.7333 613.342 59.6807 614.231 60.222C615.159 60.7247 616.416 60.976 618.001 60.976ZM617.305 35.688C619.857 35.688 621.984 35.978 623.685 36.558C625.387 37.138 626.74 37.9693 627.745 39.052C628.789 40.1347 629.524 41.4493 629.949 42.996C630.375 44.5427 630.587 46.2633 630.587 48.158V66.138C629.35 66.4087 627.629 66.718 625.425 67.066C623.221 67.4527 620.553 67.646 617.421 67.646C615.449 67.646 613.651 67.472 612.027 67.124C610.442 66.776 609.069 66.2153 607.909 65.442C606.749 64.63 605.86 63.586 605.241 62.31C604.623 61.034 604.313 59.468 604.313 57.612C604.313 55.8333 604.661 54.3253 605.357 53.088C606.092 51.8507 607.059 50.8647 608.257 50.13C609.456 49.3953 610.829 48.8733 612.375 48.564C613.922 48.216 615.527 48.042 617.189 48.042C618.311 48.042 619.297 48.1 620.147 48.216C621.037 48.2933 621.752 48.4093 622.293 48.564V47.752C622.293 46.2827 621.849 45.1033 620.959 44.214C620.07 43.3247 618.523 42.88 616.319 42.88C614.85 42.88 613.4 42.996 611.969 43.228C610.539 43.4213 609.301 43.7113 608.257 44.098L607.155 37.138C607.658 36.9833 608.277 36.8287 609.011 36.674C609.785 36.4807 610.616 36.326 611.505 36.21C612.395 36.0553 613.323 35.9393 614.289 35.862C615.295 35.746 616.3 35.688 617.305 35.688Z" stroke="#323330"/>
<path d="M638.112 28.902L646.754 27.51V36.5H657.136V43.692H646.754V54.422C646.754 56.2393 647.063 57.6893 647.682 58.772C648.339 59.8547 649.635 60.396 651.568 60.396C652.496 60.396 653.443 60.3187 654.41 60.164C655.415 59.9707 656.324 59.7193 657.136 59.41L658.354 66.138C657.31 66.5633 656.15 66.9307 654.874 67.24C653.598 67.5493 652.032 67.704 650.176 67.704C647.817 67.704 645.865 67.3947 644.318 66.776C642.771 66.1187 641.534 65.2293 640.606 64.108C639.678 62.948 639.021 61.556 638.634 59.932C638.286 58.308 638.112 56.51 638.112 54.538V28.902Z" stroke="#323330"/>
<path d="M672.815 67.008H664.174V36.5H672.815V67.008ZM673.628 27.684C673.628 29.2693 673.106 30.526 672.062 31.454C671.056 32.3433 669.858 32.788 668.466 32.788C667.074 32.788 665.856 32.3433 664.812 31.454C663.806 30.526 663.304 29.2693 663.304 27.684C663.304 26.0987 663.806 24.8613 664.812 23.972C665.856 23.044 667.074 22.58 668.466 22.58C669.858 22.58 671.056 23.044 672.062 23.972C673.106 24.8613 673.628 26.0987 673.628 27.684Z" stroke="#323330"/>
<path d="M709.475 51.696C709.475 54.0933 709.127 56.2973 708.431 58.308C707.735 60.28 706.73 61.9813 705.415 63.412C704.1 64.804 702.515 65.8867 700.659 66.66C698.842 67.4333 696.792 67.82 694.511 67.82C692.268 67.82 690.219 67.4333 688.363 66.66C686.546 65.8867 684.98 64.804 683.665 63.412C682.35 61.9813 681.326 60.28 680.591 58.308C679.856 56.2973 679.489 54.0933 679.489 51.696C679.489 49.2987 679.856 47.114 680.591 45.142C681.364 43.17 682.408 41.488 683.723 40.096C685.076 38.704 686.662 37.6213 688.479 36.848C690.335 36.0747 692.346 35.688 694.511 35.688C696.715 35.688 698.726 36.0747 700.543 36.848C702.399 37.6213 703.984 38.704 705.299 40.096C706.614 41.488 707.638 43.17 708.373 45.142C709.108 47.114 709.475 49.2987 709.475 51.696ZM700.659 51.696C700.659 49.028 700.118 46.94 699.035 45.432C697.991 43.8853 696.483 43.112 694.511 43.112C692.539 43.112 691.012 43.8853 689.929 45.432C688.846 46.94 688.305 49.028 688.305 51.696C688.305 54.364 688.846 56.4907 689.929 58.076C691.012 59.6227 692.539 60.396 694.511 60.396C696.483 60.396 697.991 59.6227 699.035 58.076C700.118 56.4907 700.659 54.364 700.659 51.696Z" stroke="#323330"/>
<path d="M716.17 37.544C717.639 37.1187 719.534 36.732 721.854 36.384C724.174 35.9973 726.61 35.804 729.162 35.804C731.752 35.804 733.898 36.152 735.6 36.848C737.34 37.5053 738.712 38.4527 739.718 39.69C740.723 40.9273 741.438 42.3967 741.864 44.098C742.289 45.7993 742.502 47.694 742.502 49.782V67.008H733.86V50.826C733.86 48.042 733.492 46.07 732.758 44.91C732.023 43.75 730.65 43.17 728.64 43.17C728.021 43.17 727.364 43.2087 726.668 43.286C725.972 43.3247 725.353 43.3827 724.812 43.46V67.008H716.17V37.544Z" stroke="#323330"/>
<path d="M759.082 60.802C760.667 60.802 761.789 60.6473 762.446 60.338C763.103 60.0287 763.432 59.4293 763.432 58.54C763.432 57.844 763.007 57.2447 762.156 56.742C761.305 56.2007 760.01 55.6013 758.27 54.944C756.917 54.4413 755.679 53.9193 754.558 53.378C753.475 52.8367 752.547 52.1987 751.774 51.464C751.001 50.6907 750.401 49.782 749.976 48.738C749.551 47.694 749.338 46.4373 749.338 44.968C749.338 42.1067 750.401 39.8447 752.528 38.182C754.655 36.5193 757.574 35.688 761.286 35.688C763.142 35.688 764.921 35.862 766.622 36.21C768.323 36.5193 769.677 36.8673 770.682 37.254L769.174 43.982C768.169 43.634 767.067 43.3247 765.868 43.054C764.708 42.7833 763.393 42.648 761.924 42.648C759.217 42.648 757.864 43.402 757.864 44.91C757.864 45.258 757.922 45.5673 758.038 45.838C758.154 46.1087 758.386 46.3793 758.734 46.65C759.082 46.882 759.546 47.1527 760.126 47.462C760.745 47.7327 761.518 48.042 762.446 48.39C764.341 49.086 765.907 49.782 767.144 50.478C768.381 51.1353 769.348 51.87 770.044 52.682C770.779 53.4553 771.281 54.3253 771.552 55.292C771.861 56.2587 772.016 57.38 772.016 58.656C772.016 61.672 770.875 63.9533 768.594 65.5C766.351 67.0467 763.161 67.82 759.024 67.82C756.317 67.82 754.055 67.588 752.238 67.124C750.459 66.66 749.222 66.2733 748.526 65.964L749.976 58.946C751.445 59.526 752.953 59.99 754.5 60.338C756.047 60.6473 757.574 60.802 759.082 60.802Z" stroke="#323330"/>
</svg>
